<?xml version="1.0" encoding="UTF-8" standalone="no"?>
<!-- Created with Inkscape (http://www.inkscape.org/) -->
<svg
   width="98.343796mm"
   height="13.797265mm"
   viewBox="0 0 98.343796 13.797265"
   version="1.1"
   id="svg5"
   xmlns="http://www.w3.org/2000/svg"
   xmlns:svg="http://www.w3.org/2000/svg">
   <title>NFS logo (2022)</title>
  <g
     id="NFS"
     transform="translate(29.266802,-47.3416)">
    <path
       style="fill:#000000;stroke-width:0.264583"
       d="m -29.264923,54.19981 0.0046,-6.860633 7.340274,-0.0117 6.970945,-0.0043 2.774017,4.719849 c 1.455362,2.476225 2.6927389,4.564033 2.7654999,4.56439 0.07276,3.7e-4 0.00256,-2.083091 -0.040306,-4.629885 l -0.07794,-4.630536 h 6.0972142 6.0972141 v 6.883419 6.883419 l -7.1704693,-0.0704 -7.1704679,-0.0704 -2.537824,-4.564063 c -1.395803,-2.510234 -2.738034,-4.631141 -2.819124,-4.631321 -0.08109,-1.8e-4 0.0215,2.150346 0.06437,4.69714 l 0.07794,4.630536 h -6.188905 -6.188904 z M 3.9894946,54.22617 V 47.347007 H 20.006368 36.02324 l -0.0088,2.535067 -0.0088,2.601997 -9.989594,0.09168 -9.855729,0.06937 v 0.525947 0.525946 h 9.921875 9.921875 v 2.645834 2.645833 h -9.921875 -9.921875 v 1.058333 1.058334 H 10.074911 3.9894946 Z M 38.618554,60.707645 C 37.732623,60.226194 37.062413,58.813403 37.062413,57.42733 v -1.084493 h 6.085417 6.085416 v 0.79375 0.79375 h 3.836459 3.836458 v -0.79375 c 0,-0.436563 -0.02977,-0.798467 -0.06615,-0.804231 -0.03638,-0.0058 -4.011083,-0.232043 -8.832673,-0.502841 C 38.49168,55.29508 38.261336,55.248 37.445761,53.670852 c -0.494813,-0.956864 -0.494813,-3.753333 0,-4.710197 0.862968,-1.668798 0.326832,-1.613652 15.688051,-1.613652 15.326919,0 14.691781,-0.06497 15.547817,1.590422 0.21745,0.420503 0.395364,1.306244 0.395364,1.968314 v 1.203764 H 63.00834 56.939687 l -0.08291,-0.859895 -0.08291,-0.859896 H 53.0697 49.365533 l -0.08,0.820887 -0.08,0.820888 2.32896,0.164904 c 1.280927,0.0907 5.126927,0.302929 8.546666,0.471626 3.795118,0.187214 6.550491,0.441226 7.07181,0.651933 1.251353,0.505771 1.921841,1.776418 1.923034,3.644359 0.0011,1.858247 -0.584856,3.226177 -1.60905,3.755808 -1.094743,0.566114 -27.804979,0.554567 -28.848403,-0.01247 z"
       id="path1137" />
  </g>
</svg>
